# xmcd
#
# Track frame offsets:
#	150
#	9902
#	20960
#	30865
#	38915
#	49727
#	58077
#	69723
#	77369
#	88193
#	97097
#	107212
#	116900
#	125727
#	134780
#	146730
#	157398
#	166418
#	174833
#	182733
#	190936
#	200797
#	210525
#	219716
#	231179
#	241349
#	251978
#	258635
#
# Disc length: 3607 seconds
#
# Revision: 0
# Processed by: cddbd v1.5.1PL2 Copyright (c) Steve Scherf et al.
# Submitted via: EasyCDDAExtractor 8.0.2.1
#
DISCID=b10e151c
DTITLE=Johnny Cash - Walk The Line [CD2)
DYEAR=2006
DGENRE=Country
TTITLE0=Rock Island Line
TTITLE1=Oh, Lonesome Me
TTITLE2=Hey! Porter
TTITLE3=The Wreck Of The Old '97
TTITLE4=Belshazar
TTITLE5=Country Boy
TTITLE6=Doin' My Time
TTITLE7=If The Good Lord's Willing
TTITLE8=I Heard That Lonesome Whistle Blow
TTITLE9=Remember Me (I'm The One Who Loves You)
TTITLE10=I Was There When It Happened
TTITLE11=Born To Lose
TTITLE12=Life Goes On
TTITLE13=Blue Train
TTITLE14=Goodnight Irene
TTITLE15=Fool's Hall Of Fame
TTITLE16=I Couldn't Keep From Crying
TTITLE17=I Forgot To Remember To Forget
TTITLE18=I Can't Help It (If I'm Still In Love With You)
TTITLE19=Always Alone
TTITLE20=I Could Never Be Ashamed Of You
TTITLE21=The Story Of A Broken Heart
TTITLE22=Down The Street To 301
TTITLE23=Port Of Lonely Hearts
TTITLE24=I Just Thought You'd Like To Know
TTITLE25=You Win Again
TTITLE26=Leave That Junk Alone (Demo)
TTITLE27=I Walk The Line (Alternative Version)
EXTD=
EXTT0=
EXTT1=
EXTT2=
EXTT3=
EXTT4=
EXTT5=
EXTT6=
EXTT7=
EXTT8=
EXTT9=
EXTT10=
EXTT11=
EXTT12=
EXTT13=
EXTT14=
EXTT15=
EXTT16=
EXTT17=
EXTT18=
EXTT19=
EXTT20=
EXTT21=
EXTT22=
EXTT23=
EXTT24=
EXTT25=
EXTT26=
EXTT27=
PLAYORDER=
